<?xml version="1.0" encoding="utf-8"?>
<!-- Generator: Adobe Illustrator 16.0.4, SVG Export Plug-In . SVG Version: 6.00 Build 0)  -->
<!DOCTYPE svg PUBLIC "-//W3C//DTD SVG 1.1//EN" "http://www.w3.org/Graphics/SVG/1.1/DTD/svg11.dtd">
<svg version="1.1" xmlns="http://www.w3.org/2000/svg" xmlns:xlink="http://www.w3.org/1999/xlink" x="0px" y="0px" width="247px"
	 height="247px" viewBox="0 0 247 247" enable-background="new 0 0 247 247" xml:space="preserve">
<g id="Layer_1">
	<path fill="#C22126" d="M127.896,172.899c-8.375,0-22.688-2.062-32.25-11.625s-13.75-19.75-13.75-38.312s4.625-25.188,7.125-29.688
		s12.875-19,34.5-19c21.625,0,32.5,12.5,37.875,23.375s3.75,26.875,3.75,26.875l-60.75,9c-0.25,4.5,1.875,8.625,3.5,10.625
		s4.625,6.25,11.25,8.75c6.625,2.5,13.903,2.812,19.625,1.875c6.875-1.125,17.5-6.25,17.5-6.25l6.375,17.375
		C150.396,170.899,136.271,172.899,127.896,172.899z M142.021,112.774c0-3.375,0-10.375-4.125-15.125s-11.25-5.875-14.26-5.875
		c-3.01,0-8.115,0-14.615,6s-6.125,20.75-6.125,20.75L142.021,112.774z"/>
</g>
<g id="Layer_2">
	<circle fill="none" stroke="#000000" stroke-width="19" stroke-miterlimit="10" cx="125.084" cy="122.945" r="101.743"/>
	<line fill="none" stroke="#000000" stroke-width="19" stroke-miterlimit="10" x1="125.085" y1="60.379" x2="125.085" y2="21.202"/>
	
		<line fill="none" stroke="#000000" stroke-width="19" stroke-miterlimit="10" x1="125.085" y1="224.688" x2="125.085" y2="185.896"/>
</g>
</svg>
