<?xml version="1.0" encoding="utf-8"?>
<!-- Generator: Adobe Illustrator 16.0.4, SVG Export Plug-In . SVG Version: 6.00 Build 0)  -->
<!DOCTYPE svg PUBLIC "-//W3C//DTD SVG 1.1//EN" "http://www.w3.org/Graphics/SVG/1.1/DTD/svg11.dtd">
<svg version="1.1" xmlns="http://www.w3.org/2000/svg" xmlns:xlink="http://www.w3.org/1999/xlink" x="0px" y="0px"
	 width="520.474px" height="322.484px" viewBox="0 0 520.474 322.484" enable-background="new 0 0 520.474 322.484"
	 xml:space="preserve">
<g id="Layer_2">
	<path d="M101.062,117.233h24.333c0,0,0,71.333,0,80.333s-2,26.667-12.167,36.667s-16.167,13.001-30.833,15.334v-20.334
		c0,0,7.679-0.605,14.5-11.208c5.653-8.788,4.167-21.792,4.167-25.458S101.062,117.233,101.062,117.233z M113.021,75.443
		c-7.322,0-13.258,5.857-13.258,13.082s5.936,13.082,13.258,13.082s13.258-5.857,13.258-13.082S120.343,75.443,113.021,75.443z"/>
	<path fill="#C22126" d="M190.896,212.899c-8.375,0-22.688-2.062-32.25-11.625s-13.75-19.75-13.75-38.312s4.625-25.188,7.125-29.688
		s12.875-19,34.5-19s32.5,12.5,37.875,23.375s3.75,26.875,3.75,26.875l-60.75,9c-0.25,4.5,1.875,8.625,3.5,10.625
		s4.625,6.25,11.25,8.75s13.903,2.811,19.625,1.875c6.875-1.125,17.5-6.25,17.5-6.25l6.375,17.375
		C213.396,210.899,199.271,212.899,190.896,212.899z M205.021,152.774c0-3.375,0-10.375-4.125-15.125s-11.25-5.875-14.26-5.875
		s-8.115,0-14.615,6s-6.125,20.75-6.125,20.75L205.021,152.774z"/>
	<path d="M238.646,117.149h12.5v-21.75l22.75-6.75v28.5h17.5v17.375h-17.25c0,0,0,40.125,0,46.625s3,9,5.75,10s11.5-1.25,11.5-1.25
		v19.5c0,0-8,2.25-14.5,2.25s-14.25-1.25-19.75-6.75s-6.062-16.125-6.062-22.688s0-47.688,0-47.688h-12.438V117.149z"/>
	<path d="M386.271,117.149h12.5v-21.75l22.75-6.75v28.5h17.5v17.375h-17.25c0,0,0,40.125,0,46.625s3,9,5.75,10s11.5-1.25,11.5-1.25
		v19.5c0,0-8,2.25-14.5,2.25s-14.25-1.25-19.75-6.75s-6.062-16.125-6.062-22.688s0-47.688,0-47.688h-12.438V117.149z"/>
	<path d="M238.646,117.149h12.5v-21.75l22.75-6.75v28.5h17.5v17.375h-17.25c0,0,0,40.125,0,46.625s3,9,5.75,10s11.5-1.25,11.5-1.25
		v19.5c0,0-8,2.25-14.5,2.25s-14.25-1.25-19.75-6.75s-6.062-16.125-6.062-22.688s0-47.688,0-47.688h-12.438V117.149z"/>
	<polygon points="305.021,117.024 373.271,117.024 335.396,191.649 373.896,191.649 373.896,210.524 302.021,210.524 
		340.646,135.274 305.021,135.274 	"/>
</g>
<g id="Layer_4">
	
		<line fill="none" stroke="#000000" stroke-width="23" stroke-miterlimit="10" x1="186.636" y1="237.566" x2="186.636" y2="286.703"/>
	<line fill="none" stroke="#000000" stroke-width="23" stroke-miterlimit="10" x1="186.636" y1="38.306" x2="186.636" y2="92.899"/>
</g>
<g id="Layer_3">
	<path fill="none" stroke="#000000" stroke-width="23" stroke-miterlimit="10" d="M485.349,249.443
		c0,20.578-16.682,37.26-37.26,37.26H73.424c-20.578,0-37.259-16.682-37.259-37.26V75.565c0-20.578,16.682-37.259,37.259-37.259
		h374.665c20.578,0,37.26,16.682,37.26,37.259V249.443z"/>
</g>
</svg>
